<?xml version="1.0" encoding="utf-8"?>
<!-- Generator: Adobe Illustrator 24.1.1, SVG Export Plug-In . SVG Version: 6.00 Build 0)  -->
<svg version="1.1" id="Layer_1" xmlns="http://www.w3.org/2000/svg" xmlns:xlink="http://www.w3.org/1999/xlink" x="0px" y="0px"
	 viewBox="0 0 512 512" style="enable-background:new 0 0 512 512;" xml:space="preserve">
<g>
	<path d="M281.6,281.6H384c14.1,0,25.6-11.5,25.6-25.6c0-14.1-11.5-25.6-25.6-25.6H281.6V128c0-14.1-11.5-25.6-25.6-25.6
		c-14.1,0-25.6,11.5-25.6,25.6v102.4H128c-14.1,0-25.6,11.5-25.6,25.6c0,14.1,11.5,25.6,25.6,25.6h102.4V384
		c0,14.1,11.5,25.6,25.6,25.6c14.1,0,25.6-11.5,25.6-25.6V281.6z M102.4,0h307.2C466.1,0,512,45.8,512,102.4v307.2
		c0,56.5-45.9,102.4-102.4,102.4H102.4C45.8,512,0,466.1,0,409.6V102.4C0,45.8,45.8,0,102.4,0z"/>
</g>
</svg>
